<svg xmlns="http://www.w3.org/2000/svg" width="86.563" height="86"><path id="cube_logo" data-name="cube logo" d="M160.4 114.51h-21a21 21 0 1 0 0 42h21v-19.921h-7.56v-2.16h7.56V114.51zm2.581 0v21a21 21 0 0 0 42 0v-21h-19.92v7.559H182.9v-7.559h-19.92zm-42 44v42h19.979a25.67 25.67 0 0 0 8.7-1.26 17.282 17.282 0 0 0 2.7-30.6 10.1 10.1 0 0 0-6.3-9.359 14.42 14.42 0 0 0-5.1-.781h-19.981zm81.838 23.7v-5.4H195.2v-2.1h7.62v-16.2h-40.5v42h40.5v-16.2h-7.62v-2.1h7.62z" transform="translate(-118.406 -114.5)" fill="#60d4d4" fill-rule="evenodd"/></svg>